# xmcd
#
# Track frame offsets:
#	150
#	48242
#	81735
#	108385
#	132847
#	166655
#	187829
#	225622
#	245466
#
# Disc length: 3540 seconds
#
# Revision: 1
# Processed by: cddbd v1.4PL0 Copyright (c) Steve Scherf et al.
# Submitted via: EasyCDDAExtractor 5.0.6
#
DISCID=6b0dd209
DTITLE=The Brother Music Powerhouse - Gadzooks!
DYEAR=1998
DGENRE=Blues
TTITLE0=Boogie Chillin
TTITLE1=Traveling Riverside Blues
TTITLE2=Hoochie Coochie Man
TTITLE3=School Days
TTITLE4=Scratch My Back
TTITLE5=No Expectations
TTITLE6=Ramblin' On My Mind
TTITLE7=All Around The World
TTITLE8=Terraplane Blues
EXTD=
EXTT0=
EXTT1=
EXTT2=
EXTT3=
EXTT4=
EXTT5=
EXTT6=
EXTT7=
EXTT8=
PLAYORDER=
